<?xml version="1.0" encoding="UTF-8"?>
<svg version="1.1" viewBox="0 0 1024 1024" width="1024" height="1024" xmlns="http://www.w3.org/2000/svg">
<path transform="translate(0)" d="m0 0h1024v1024h-1024z" fill="#F2F4F4"/>
<path transform="translate(489,223)" d="m0 0h48l23 3 24 5 27 8 21 9 21 10 21 13 14 10 11 9 10 9 12 11 9 10 11 13 12 17 11 18 11 21 10 25 6 19 5 20 4 28 1 12v39l-3 25-5 26-8 27-8 20-8 16-11 20-14 20-8 10-12 14-17 17-11 9-17 13-15 10-21 12-20 9-22 8-26 7-23 4-19 2h-40l-22-2-22-4-26-7-22-8-20-9-18-10-14-9-14-10-13-11-8-7-12-11-7-8-10-12-14-19-12-20-8-15-10-23-6-18-7-27-4-26-1-11-1-25 1-24 4-28 5-21 6-20 8-21 8-17 9-16 10-15 11-15 9-11 8-8 1-2h2l1-3 8-7 7-7 11-9 13-10 22-14 25-13 25-10 28-8 26-5z" fill="#10162E"/>
<path transform="translate(437,441)" d="m0 0h13l28 4 9 3-1 3-16 10-11 9-8 9-11 16-11 17-11 18-7 13-4-1-18-18-2-1v-2h-2l-22-22-8-7-7-7-8-7-10-10-1-2v-9l5-6 10-2 69-6z" fill="#287DBC"/>
<path transform="translate(583,442)" d="m0 0h16l51 4 34 3 7 3 4 6v7l-4 6-5 5h-2v2l-8 7-13 13-8 7-14 14h-2v2l-8 7-16 16-17 11-15 8-11 4 2-6 6-13 4-14 1-6v-52l-2-22z" fill="#287CBB"/>
<path transform="translate(507,330)" d="m0 0h10l6 5 17 37 16 36 5 12 6 15 4 22 1 18-4-2-11-10-15-9-13-6-23-7-21-6-18-4-7-1-1-3 5-11 16-36 13-28 8-17z" fill="#1FA5D4"/>
<path transform="translate(605,566)" d="m0 0 3 1 4 14 6 25 9 39 4 16v11l-6 6h-9l-12-7-16-8-14-8-14-7-19-10-20-11-14-12-14-14-3-4v-2h35l20-4 21-7 24-10z" fill="#33459D"/>
<path transform="translate(435,527)" d="m0 0 3 1 4 17 5 15 6 11 12 16 14 17 10 10 7 8 4 4-1 3-14 8-23 12-16 9-15 8-18 10-6 3-8-1-5-4-1-2v-11l9-37 8-36 5-21 8-20 11-19z" fill="#33459D"/>
<path transform="translate(597,620)" d="m0 0 14 1 5 3 2 3 5 2 8 32v11l-6 6h-9l-12-7-16-8-14-8-14-7-19-10-16-9 1-5 5-1h21z" fill="#34339D"/>
<path transform="translate(480,620)" d="m0 0 4 5 3 5 3 2-5 5-23 12-16 9-15 8-18 10-6 3-8-1-5-4-1-2v-11l7-28 7-4 6-4h26l8-1h25l8 1z" fill="#34339D"/>
<path transform="translate(583,442)" d="m0 0h16l28 2v1h-28l-2-1h-11v6l3 1 2 4 1 10-1 2h-3v19l6 1 1 11h2l1 2 24 2 4 1h8l9 1h6l4-2 4 1-16 16h-2v2l-8 7-16 16-17 11-15 8-11 4 2-6 6-13 4-14 1-6v-52l-2-22z" fill="#3670AF"/>
<path transform="translate(437,441)" d="m0 0h13l28 4 9 3-1 3-16 10-4 3-7 2v2l-4-1h-8l-9 1-11-1-6-2-4-1v-2l-3 1-19-1-5-1-8-1-1 2h-24l-14 1-2-1v-2h-7l2 4-3 4-2-1 1-12 4-5 64-6z" fill="#2587C1"/>
<path transform="translate(468,407)" d="m0 0h1l-1 8 11 2 12 1 4 1 6 1 10 2h41l7 3 2 9 3 3-3-11-6-13v-5l2 3 7 16 4 12 3 18 1 18-4-2-11-10-15-9-13-6-23-7-21-6-18-4-7-1-1-3 5-11z" fill="#2489C2"/>
<path transform="translate(509,469)" d="m0 0h7l7 3 6 7 9 20 10 22 5 12 10 22 2 5v3h-17l-5-3-8-16-20-44-4-7-2-1h-11l-7 2-1-2 3-6 6-11 4-4z" fill="#2979BA"/>
<path transform="translate(435,527)" d="m0 0 3 1 4 17 5 15 6 11 15 20 1 5-2 5-4-4h-1l-2 1-14 1h-14l-12-1-9 4-2 2v-10l5-24 5-13 5-12 10-17z" fill="#34529E"/>
<path transform="translate(444,486)" d="m0 0v3l-15 23-11 18-7 13-4-1-18-18-2-1v-2h-2l-5-5-5-6h2l1-4 9-3h21l3 1 7-2 7-1 7-7 7-6z" fill="#366FAF"/>
<path transform="translate(499,500)" d="m0 0h7l-3 5-4 6-1 3v10l5 10 6 5 3 1 12 1-1 4-5 4-7 3-10-1-10-5-7-8-2-7v-13l4-9 8-7z" fill="#2682BD"/>
<path transform="translate(591,444)" d="m0 0 36 1 45 4 1 1 15 2 4 4v7l-1-2-2-1-2-5-8 2h-10l-9-3v-1h-8l-1 1-24 4-7 2-18-1-2-6-5-5-4-2z" fill="#248CC3"/>
<path transform="translate(583,442)" d="m0 0h16l28 2v1h-28l-2-1h-11v6l3 1 2 4 1 10-1 2h-3v54l-2 15-5 17h2l2-9 7-3h16l-1 5 7-4 12-12 2 1-13 13-17 11-15 8-11 4 2-6 6-13 4-14 1-6v-52l-2-22z" fill="#34509E"/>
<path transform="translate(540,506)" d="m0 0 3 4 5 11 5 12 10 22 2 5v3h-17l-5-3-8-16-10-22 1-3 8 17 5-5 9-3-6-15-2-4z" fill="#34519E"/>
<path transform="translate(533,491)" d="m0 0 2 1 5 11 2 8 6 14v3l-7 3-5 3-2 3-8-16v-2l-3-1-7-16v-2h2v-2l7-2h7z" fill="#366EAE"/>
<path transform="translate(468,407)" d="m0 0h1l-1 8 6 2v2l7 1 25 11 13 7 5 4 6 3v2l4 2-5-1-23-7-21-6-18-4-7-1-1-3 5-11z" fill="#2978B9"/>
<path transform="translate(605,566)" d="m0 0 3 1 4 14 1 4v7l-2 2-4-4-6-3-1-3 1-2-9 3-22 6h-11l-2-4 14-5 21-9z" fill="#34519E"/>
<path transform="translate(773,631)" d="m0 0h1l-1 7-8 16-11 18-13 18-11 13-11 12-12 12-7 6-4-1v-4h6v-2l2-1 1-5 6-2 2-6 6-2 1-6 6-1 2-4v-3h5l3-9 4-1 3-5 1-9 7-2 2-6 3-1 4-9v-6h3l1-2 1 1 2-5 1-10h2l1 1z" fill="#18193C"/>
<path transform="translate(471,532)" d="m0 0h2l4 10 7 8-1 6-4 6-2 1h-16l-2-1 3-9 8-20z" fill="#34529F"/>
<path transform="translate(277,672)" d="m0 0 3 1v5l4 8v2l4-1 1 7h2v2h7l-1 6h2l1-2v4l3-1 4 9h5l2 7 6 1 2 7 6 1h1l4-1 2 1v5l-5-1 3 3 4 1v3l2 1h-2l1 3-4-2-11-9-10-9-11-10-7-8-10-12-12-16 4-1-1-3z" fill="#161433"/>
<path transform="translate(631,774)" d="m0 0 2 1-10 5-22 8-26 7-23 4-15 1 4-1v-2l2-1 10-1-6-1v-1l5-1 21-1 12-3h8v-2l-2-1 1-1 11-1 7-3h5l1-4z" fill="#18193A"/>
<path transform="translate(571,591)" d="m0 0h6l-2 2-7 3-7 2-14 1-3 1h-43l1 7-6-3-6-7v-2h59l13-3z" fill="#34529E"/>
<path transform="translate(439,493)" d="m0 0 1 2-11 17-11 18-7 13-4-1-18-18h3l13 13 3 1 4-12 3-5h2l3-9 8-10h3l2-4 3-1z" fill="#34519E"/>
<path transform="translate(362,757)" d="m0 0 4 2 10 1 1 2-2 1 7 4 10 1 1 2-2 1 5 3 13 2 1 3 9 4 17 1 2 2-5 1 1 3 2 1-9-2-24-8-22-10-18-10-3-3z" fill="#161534"/>
<path transform="translate(481,664)" d="m0 0h15v16l-2 2-3 2h-6l-1-3-4-2 1-8-1-5z" fill="#171737"/>
<path transform="translate(441,790)" d="m0 0 8 1 28 1 2 2-10 1 8 1 22 1 1 3h33v1h-40l-22-2-22-4-12-3z" fill="#18193B"/>
<path transform="translate(499,500)" d="m0 0h7l-3 5-3 4h-3l-2 14-3-1-3 1-2 4h-2l-1 2v-13l4-7 6-7z" fill="#20A0D0"/>
<path transform="translate(773,631)" d="m0 0h1l-1 7-8 16-11 18-11 15-2-3 2-3 1-9 7-2 2-6 3-1 4-9v-6h3l1-2 1 1 2-5 1-10h2l1 1z" fill="#181838"/>
<path transform="translate(436,529)" d="m0 0h1l4 19 2 8-3-1-2-5-2 1h-6l-5 3-1 2h-2l1-5 10-19z" fill="#3771B0"/>
<path transform="translate(583,442)" d="m0 0h16l28 2v1h-28l-2-1h-11v6l3 1 2 4 1 10-1 2h-3l-1 16h-1l-3-29z" fill="#3352A0"/>
<path transform="translate(463,419)" d="m0 0 6 1-1 3 10 2 5 2 1 5 9 3v1l-8-1-18-4-7-1-1-3z" fill="#3354A1"/>
<path transform="translate(579,790)" d="m0 0h3v2l-7 3-23 4-15 1 4-1v-2l2-1 10-1-6-1v-1l5-1 21-1z" fill="#171636"/>
<path transform="translate(490,595)" d="m0 0 34 1-3 2-20 2 1 7-6-3-6-7z" fill="#344C9E"/>
<path transform="translate(470,796)" d="m0 0 29 1 1 3h33v1h-40l-14-1-9-3z" fill="#202958"/>
<path transform="translate(409,779)" d="m0 0 10 4 17 1 2 2-5 1 1 3 2 1-9-2-21-7z" fill="#171737"/>
<path transform="translate(501,797)" d="m0 0h40v2l-4 1h-37z" fill="#140C26"/>
<path transform="translate(435,527)" d="m0 0 3 1 4 17 1 6h-2l-5-21-6 9-9 19-2 1 3-10 12-21z" fill="#344C9E"/>
<path transform="translate(605,566)" d="m0 0 3 1-1 3h-3l-9 3v2l2 1-2 3-4 1h-7l-3-2 19-9z" fill="#33459D"/>
<path transform="translate(631,774)" d="m0 0 2 1-10 5-13 5-2-1 3-4h4l1-4z" fill="#191D41"/>
<path transform="translate(485,669)" d="m0 0h6l2 2-1 7-1 1h-5l-3-3 1-6z" fill="#F2F4F4"/>
<path transform="translate(407,386)" d="m0 0 6 1 1 1v6l-2 2h-6l-2-3 1-5z" fill="#F2F4F4"/>
<path transform="translate(499,543)" d="m0 0 5 1 2 5 8 1-3 2-10-1-10-5-1-2 5 1z" fill="#2C6BB1"/>
<path transform="translate(344,532)" d="m0 0 6 1 1 1v6l-2 2h-5l-3-3 1-5z" fill="#F2F4F4"/>
<path transform="translate(659,570)" d="m0 0h5l3 4-2 5-1 1h-5l-2-2v-6z" fill="#F2F4F4"/>
<path transform="translate(619,393)" d="m0 0h6l2 2v5l-5 3-4-2-1-5z" fill="#F2F4F4"/>
<path transform="translate(747,671)" d="m0 0h4l1 4-9 12-2-3 2-3 1-9z" fill="#171534"/>
<path transform="translate(362,757)" d="m0 0 4 2 10 1 1 2-2 1 5 4v2l-6-2-14-8z" fill="#18183A"/>
<path transform="translate(254,632)" d="m0 0h2l2 13 2 4 2 1v2h-2l-1 2-8-15v-4h2z" fill="#191B3F"/>
<path transform="translate(338,743)" d="m0 0 13 1 1 3v3l2 5-11-7z" fill="#191B3E"/>
<path transform="translate(643,765)" d="m0 0 3 1v3l-12 6-3-2 3-3-2-1 1-1 8-1z" fill="#171536"/>
<path transform="translate(675,747)" d="m0 0 4 2-15 10-3 1v-2h2l1-6 8-2z" fill="#191E41"/>
<path transform="translate(277,672)" d="m0 0 3 1v5l4 8-1 3-5-5-5-8h4l-1-3z" fill="#18193A"/>
<path transform="translate(689,736)" d="m0 0h4l-2 4-11 8-3-2 6-5 4-2z" fill="#191B3F"/>
<path transform="translate(626,636)" d="m0 0 2 2 4 13v8l-2-3v-3h-2l-2-13z" fill="#130D27"/>
<path transform="translate(760,657)" d="m0 0 1 4-8 12-2-3 2-6 3-1z" fill="#191B3E"/>
<path transform="translate(773,631)" d="m0 0h1l-1 7-3 6-2-2v-10h2l1 1z" fill="#171636"/>
<path transform="translate(555,408)" d="m0 0 2 3 7 16 2 5v3h-2l-5-13-4-9z" fill="#2C6AB0"/>
<path transform="translate(241,614)" d="m0 0 2 1v2h3l1-2 1 1v10l-2 2-5-12z" fill="#1A1D42"/>
<path transform="translate(656,759)" d="m0 0 5 1-4 3-6 3-2-2-1-4z" fill="#171637"/>
<path transform="translate(408,709)" d="m0 0 4 3v2l-13-1-1-2z" fill="#140C26"/>
<path transform="translate(264,662)" d="m0 0 6 2h2v5l1 4-1 2-8-12z" fill="#1A2043"/>
<path transform="translate(334,451)" d="m0 0 2 1-3 3-1 14-3-3v-9z" fill="#2E64AC"/>
<path transform="translate(491,490)" d="m0 0 1 2 5-2h13l4 4 2 6-3-3-2-4-2-1h-11l-7 2-1-2z" fill="#334A9D"/>
<path transform="translate(530,797)" d="m0 0h11v2l-4 1h-15v-1l7-1z" fill="#120F28"/>
<path transform="translate(409,779)" d="m0 0 10 4 1 3-9-2-5-2z" fill="#1B1E44"/>
<path transform="translate(353,751)" d="m0 0 7 1 2 5-4 1-5-5z" fill="#161331"/>
<path transform="translate(543,796)" d="m0 0h7v2l2 1-15 1 4-1v-2z" fill="#1E2753"/>
<path transform="translate(585,788)" d="m0 0h8l-3 3-10 2 2-1 1-3z" fill="#1B1F45"/>
<path transform="translate(261,648)" d="m0 0h3l1 9-2 1-3-2v-4h2z" fill="#140E2A"/>
<path transform="translate(513,471)" d="m0 0h6l5 2 2 7-5-5-8-3z" fill="#2588C1"/>
<path transform="translate(696,728)" d="m0 0h6l-1 4-5 1z" fill="#171535"/>
<path transform="translate(551,589)" d="m0 0h5l-1 2h-4v2l-5 1-1-3z" fill="#344D9E"/>
<path transform="translate(472,559)" d="m0 0 4 1 1 3h-16v-1h12z" fill="#33459D"/>
</svg>
